<?xml version="1.0" standalone="no"?>
<!DOCTYPE svg PUBLIC "-//W3C//DTD SVG 20010904//EN"
 "http://www.w3.org/TR/2001/REC-SVG-20010904/DTD/svg10.dtd">
<svg version="1.0" xmlns="http://www.w3.org/2000/svg"
 width="976.000000pt" height="1056.000000pt" viewBox="0 0 976.000000 1056.000000"
 preserveAspectRatio="xMidYMid meet">
<metadata>
Created by potrace 1.16, written by Peter Selinger 2001-2019
</metadata>
<rect width="100%" height="100%" fill="#000000"/>
<g transform="translate(0.000000,1056.000000) scale(0.100000,-0.100000)"
fill="#FFFFFF" stroke="none">
<path d="M0 5280 l0 -5280 4880 0 4880 0 0 5280 0 5280 -4880 0 -4880 0 0
-5280z m7830 3968 c45 -31 62 -67 125 -274 30 -98 105 -332 167 -519 61 -186
113 -360 116 -385 4 -42 1 -49 -23 -68 -15 -12 -36 -22 -46 -22 -11 0 -90 31
-176 69 -87 38 -168 72 -181 76 -28 8 33 147 -519 -1175 -91 -217 -240 -573
-331 -790 -90 -217 -193 -462 -227 -545 -35 -82 -110 -262 -168 -400 l-105
-250 -403 0 -404 0 -66 165 c-352 873 -593 1475 -649 1620 -37 96 -75 193 -84
215 l-17 40 -140 -345 c-76 -190 -188 -464 -248 -610 -60 -146 -175 -427 -256
-625 -81 -198 -157 -384 -170 -412 l-24 -53 -399 0 -400 0 -62 148 c-77 181
-147 348 -235 557 -37 88 -117 277 -177 420 -61 143 -146 346 -190 450 -85
203 -207 490 -283 670 -26 61 -66 157 -90 215 -23 58 -113 274 -200 480 -127
303 -214 516 -282 688 -4 9 96 12 480 12 l484 0 20 -47 c85 -200 361 -862 383
-918 15 -38 58 -142 95 -230 37 -88 106 -254 154 -370 48 -115 132 -317 186
-447 55 -131 103 -234 107 -230 4 4 93 214 198 467 105 253 251 604 325 780
73 176 175 421 225 545 51 124 113 276 139 338 l46 112 320 -2 320 -3 123
-300 c67 -165 158 -388 202 -495 118 -290 190 -466 265 -650 37 -91 87 -212
110 -270 88 -218 215 -524 220 -528 6 -7 41 71 189 418 120 281 308 720 536
1245 130 301 182 426 179 429 -2 2 -69 24 -149 50 -172 56 -220 81 -220 112 0
25 39 61 108 101 26 14 94 54 152 89 261 154 625 361 749 425 108 56 150 61
201 27z m-618 -3707 c456 -131 713 -255 895 -434 92 -91 125 -159 126 -261 0
-91 -28 -157 -102 -238 -68 -74 -158 -133 -323 -213 -303 -145 -722 -272
-1443 -435 -986 -223 -1465 -383 -1465 -489 0 -74 66 -97 765 -271 739 -184
1169 -312 1610 -477 322 -121 593 -245 864 -395 l114 -63 -929 -3 -928 -2 -36
30 c-19 16 -90 71 -157 122 -290 220 -602 384 -1068 563 -489 187 -647 260
-752 344 -75 61 -103 103 -103 155 0 123 172 236 540 356 258 85 391 115 1140
266 347 70 861 192 955 228 63 23 35 19 -113 -18 -204 -51 -439 -100 -702
-146 -995 -173 -1172 -209 -1440 -295 -170 -54 -381 -155 -461 -218 -85 -68
-118 -155 -88 -234 25 -67 139 -169 274 -245 74 -42 346 -168 515 -238 308
-130 595 -280 795 -418 104 -73 266 -202 294 -236 12 -15 -55 -16 -740 -16
l-754 0 -29 68 c-102 241 -278 440 -588 666 -237 174 -247 181 -315 247 -84
82 -114 136 -121 214 -4 53 -1 71 21 116 81 172 353 319 862 464 207 59 617
143 1047 215 586 97 725 122 948 166 243 48 504 115 663 171 318 110 513 277
493 420 -14 105 -87 212 -211 308 -78 61 -230 155 -250 155 -5 0 -16 4 -24 9
-12 7 -11 17 5 60 10 28 24 51 30 51 7 0 91 -22 186 -49z m-4290 -643 l35 -63
-96 -46 c-191 -91 -348 -216 -407 -321 -25 -46 -29 -63 -29 -128 0 -58 6 -85
23 -117 83 -157 406 -342 768 -438 54 -14 105 -28 112 -31 9 -3 -2 -20 -33
-49 -155 -151 -132 -363 60 -564 45 -48 71 -81 60 -78 -11 3 -97 29 -191 56
-621 182 -1175 405 -1444 582 -119 78 -243 202 -290 289 -31 58 -35 73 -35
140 0 65 5 85 33 142 89 181 340 345 785 512 193 72 311 107 582 169 11 3 23
5 27 6 3 0 22 -27 40 -61z m-958 -3460 c30 -95 63 -201 73 -235 10 -35 20 -63
23 -63 3 0 39 105 80 233 l76 232 51 3 52 3 26 -88 c21 -70 95 -304 122 -383
2 -8 20 35 38 95 19 61 54 169 78 240 l44 130 48 3 c26 2 53 1 61 -2 10 -4
-15 -87 -97 -328 -60 -177 -113 -326 -118 -331 -5 -5 -30 -7 -57 -5 l-48 3
-23 65 c-12 36 -45 139 -74 229 -38 115 -55 158 -60 145 -4 -11 -38 -113 -76
-229 l-68 -210 -55 0 -55 0 -107 315 c-58 173 -107 323 -107 333 -1 14 8 17
58 17 l60 0 55 -172z m1306 0 c41 -95 104 -244 141 -330 37 -86 64 -159 61
-162 -11 -12 -110 -6 -119 7 -9 11 -106 242 -179 424 -16 40 -32 73 -35 73 -4
0 -23 -42 -42 -92 -20 -51 -66 -165 -102 -253 l-65 -160 -61 -3 c-60 -3 -61
-2 -56 20 2 13 55 140 117 283 61 143 121 284 132 313 l21 52 57 0 57 0 73
-172z m362 155 c8 -10 50 -73 93 -140 42 -68 81 -123 85 -123 4 0 49 63 99
140 l90 140 59 0 c32 0 61 -3 64 -6 4 -3 -15 -38 -41 -77 -27 -40 -84 -126
-127 -192 l-79 -120 -5 -135 -5 -135 -55 0 -55 0 -3 127 -3 128 -129 197 c-71
108 -127 200 -124 205 3 4 31 8 63 8 43 0 62 -5 73 -17z m801 -15 c13 -18 55
-82 92 -143 37 -60 73 -116 80 -123 9 -10 22 4 60 65 27 43 71 113 98 156 l50
77 58 0 58 0 3 -325 c2 -179 2 -330 0 -335 -2 -6 -28 -10 -58 -10 -50 0 -54 2
-60 27 -4 14 -4 108 -1 208 3 100 4 191 0 203 -4 17 -23 -5 -98 -121 -51 -78
-98 -142 -105 -142 -8 0 -54 64 -104 142 l-91 142 -5 -227 -5 -227 -55 0 -55
0 -3 333 -2 332 59 0 c56 0 62 -2 84 -32z m1143 -118 c155 -364 214 -504 214
-512 0 -5 -28 -8 -62 -6 l-62 3 -26 65 c-15 36 -46 110 -69 165 -23 55 -58
140 -78 188 -20 49 -39 85 -44 80 -4 -4 -34 -75 -67 -158 -33 -82 -78 -193
-99 -245 l-39 -95 -62 -3 c-36 -2 -62 1 -62 7 0 5 22 60 49 123 27 62 79 185
116 273 37 88 78 184 91 213 l23 53 58 -3 57 -3 62 -145z m524 -9 l5 -155 150
157 149 157 68 0 c37 0 68 -3 68 -6 0 -4 -59 -69 -130 -144 l-131 -139 141
-185 c77 -103 140 -189 140 -192 0 -2 -33 -4 -72 -2 l-73 3 -100 132 c-55 73
-106 138 -113 145 -10 10 -21 3 -57 -32 l-44 -44 -3 -100 -3 -101 -57 -3 -58
-3 0 336 0 336 58 -3 57 -3 5 -154z m1105 104 l0 -50 -183 -3 -183 -2 3 -83 3
-82 163 -3 162 -2 0 -50 0 -50 -162 -2 -163 -3 0 -85 0 -85 183 -3 182 -2 0
-55 0 -55 -242 2 -243 3 -3 320 c-1 176 0 326 3 333 3 10 57 12 242 10 l238
-3 0 -50z m608 36 c51 -16 113 -74 128 -118 6 -19 9 -63 7 -98 -5 -76 -37
-125 -104 -158 -43 -21 -44 -21 -26 -41 31 -35 152 -215 152 -226 0 -7 -25
-10 -67 -8 l-68 3 -80 118 -79 118 -71 -3 -70 -3 -3 -118 -3 -118 -57 3 c-54
3 -57 4 -56 28 1 14 2 164 3 333 l1 309 178 -5 c97 -2 194 -10 215 -16z"/>
<path d="M7535 1488 c-3 -8 -4 -57 -3 -109 l3 -94 75 -3 c155 -7 208 18 217
99 5 41 2 50 -25 80 l-30 34 -116 3 c-93 3 -117 1 -121 -10z"/>
</g>
</svg>
