<?xml version="1.0" standalone="no"?>
<!DOCTYPE svg PUBLIC "-//W3C//DTD SVG 20010904//EN"
 "http://www.w3.org/TR/2001/REC-SVG-20010904/DTD/svg10.dtd">
<svg version="1.0" xmlns="http://www.w3.org/2000/svg"
 width="976.000000pt" height="1056.000000pt" viewBox="0 0 976.000000 1056.000000"
 preserveAspectRatio="xMidYMid meet">
<metadata>
Created by potrace 1.16, written by Peter Selinger 2001-2019
</metadata>
<rect width="100%" height="100%" fill="#000000"/>
<g transform="translate(0.000000,1056.000000) scale(0.100000,-0.100000)"
fill="#FFFFFF" stroke="none">
<path d="M0 5280 l0 -5280 4880 0 4880 0 0 5280 0 5280 -4880 0 -4880 0 0
-5280z m7830 3968 c45 -31 62 -67 125 -274 30 -98 105 -332 167 -519 61 -186
113 -360 116 -385 4 -42 1 -49 -23 -68 -15 -12 -36 -22 -46 -22 -11 0 -90 31
-176 69 -87 38 -168 72 -181 76 -28 8 33 147 -519 -1175 -91 -217 -240 -573
-331 -790 -90 -217 -193 -462 -227 -545 -35 -82 -110 -262 -168 -400 l-105
-250 -403 0 -404 0 -66 165 c-352 873 -593 1475 -649 1620 -37 96 -75 193 -84
215 l-17 40 -140 -345 c-76 -190 -188 -464 -248 -610 -60 -146 -175 -427 -256
-625 -81 -198 -157 -384 -170 -412 l-24 -53 -399 0 -400 0 -62 148 c-77 181
-147 348 -235 557 -37 88 -117 277 -177 420 -61 143 -146 346 -190 450 -85
203 -207 490 -283 670 -26 61 -66 157 -90 215 -23 58 -113 274 -200 480 -127
303 -214 516 -282 688 -4 9 96 12 480 12 l484 0 20 -47 c85 -200 361 -862 383
-918 15 -38 58 -142 95 -230 37 -88 106 -254 154 -370 48 -115 132 -317 186
-447 55 -131 103 -234 107 -230 4 4 93 214 198 467 105 253 251 604 325 780
73 176 175 421 225 545 51 124 113 276 139 338 l46 112 320 -2 320 -3 123
-300 c67 -165 158 -388 202 -495 118 -290 190 -466 265 -650 37 -91 87 -212
110 -270 88 -218 215 -524 220 -528 6 -7 41 71 189 418 120 281 308 720 536
1245 130 301 182 426 179 429 -2 2 -69 24 -149 50 -172 56 -220 81 -220 112 0
25 39 61 108 101 26 14 94 54 152 89 261 154 625 361 749 425 108 56 150 61
201 27z m-618 -3707 c456 -131 713 -255 895 -434 92 -91 125 -159 126 -261 0
-91 -28 -157 -102 -238 -68 -74 -158 -133 -323 -213 -303 -145 -722 -272
-1443 -435 -986 -223 -1465 -383 -1465 -489 0 -74 66 -97 765 -271 739 -184
1169 -312 1610 -477 322 -121 593 -245 864 -395 l114 -63 -929 -3 -928 -2 -36
30 c-19 16 -90 71 -157 122 -290 220 -602 384 -1068 563 -489 187 -647 260
-752 344 -75 61 -103 103 -103 155 0 123 172 236 540 356 258 85 391 115 1140
266 347 70 861 192 955 228 63 23 35 19 -113 -18 -204 -51 -439 -100 -702
-146 -995 -173 -1172 -209 -1440 -295 -170 -54 -381 -155 -461 -218 -85 -68
-118 -155 -88 -234 25 -67 139 -169 274 -245 74 -42 346 -168 515 -238 308
-130 595 -280 795 -418 104 -73 266 -202 294 -236 12 -15 -55 -16 -740 -16
l-754 0 -29 68 c-102 241 -278 440 -588 666 -237 174 -247 181 -315 247 -84
82 -114 136 -121 214 -4 53 -1 71 21 116 81 172 353 319 862 464 207 59 617
143 1047 215 586 97 725 122 948 166 243 48 504 115 663 171 318 110 513 277
493 420 -14 105 -87 212 -211 308 -78 61 -230 155 -250 155 -5 0 -16 4 -24 9
-12 7 -11 17 5 60 10 28 24 51 30 51 7 0 91 -22 186 -49z m-4290 -643 l35 -63
-96 -46 c-191 -91 -348 -216 -407 -321 -25 -46 -29 -63 -29 -128 0 -58 6 -85
23 -117 83 -157 406 -342 768 -438 54 -14 105 -28 112 -31 9 -3 -2 -20 -33
-49 -155 -151 -132 -363 60 -564 45 -48 71 -81 60 -78 -11 3 -97 29 -191 56
-621 182 -1175 405 -1444 582 -119 78 -243 202 -290 289 -31 58 -35 73 -35
140 0 65 5 85 33 142 89 181 340 345 785 512 193 72 311 107 582 169 11 3 23
5 27 6 3 0 22 -27 40 -61z"/>
</g>
</svg>
