<?xml version="1.0" encoding="UTF-8"?>
<svg version="1.1" xmlns="http://www.w3.org/2000/svg"
 width="500" height="380" viewBox="0 0 500 380">
<g transform="translate(52, 50) scale(0.1, -0.1) translate(0, -2750)">
<path fill="#10112C" d="M203 2631 c-26 -12 -52 -35 -70 -62 l-28 -43 0 -1156 0 -1156 28 -42
c15 -23 45 -51 67 -62 37 -19 58 -20 417 -20 406 0 414 1 455 53 9 12 201 299
426 637 411 619 427 640 482 640 55 0 72 -23 415 -540 187 -283 371 -563 409
-621 37 -59 81 -120 97 -135 l30 -29 404 0 c394 0 404 1 432 21 41 31 70 78
76 126 12 83 11 2272 0 2298 -16 39 -73 89 -112 100 -20 6 -173 10 -345 10
-295 0 -312 -1 -354 -21 -26 -13 -54 -38 -70 -62 l-27 -41 -5 -837 c-5 -805
-6 -838 -24 -858 -34 -37 -66 -27 -132 42 -66 69 -216 233 -280 308 l-41 47
-5 639 c-6 707 -3 677 -72 743 l-37 35 -342 3 c-385 3 -382 3 -441 -71 l-31
-39 -3 -648 -2 -649 -143 -158 c-260 -289 -269 -297 -322 -257 -20 15 -20 30
-25 852 -5 755 -7 840 -22 867 -22 40 -66 81 -101 94 -18 7 -145 11 -345 11
-290 0 -321 -2 -359 -19z"/>
</g>
</svg>