<?xml version="1.0" standalone="no"?>
<!DOCTYPE svg PUBLIC "-//W3C//DTD SVG 20010904//EN"
 "http://www.w3.org/TR/2001/REC-SVG-20010904/DTD/svg10.dtd">
<svg version="1.0" xmlns="http://www.w3.org/2000/svg"
 width="976.000000pt" height="1056.000000pt" viewBox="0 0 976.000000 1056.000000"
 preserveAspectRatio="xMidYMid meet">
<metadata>
Created by potrace 1.16, written by Peter Selinger 2001-2019
</metadata>
<g transform="translate(0.000000,1056.000000) scale(0.100000,-0.100000)"
fill="#000000" stroke="none">
<path d="M7629 9221 c-124 -64 -488 -271 -749 -425 -58 -35 -126 -75 -152 -89
-69 -40 -108 -76 -108 -101 0 -31 48 -56 220 -112 80 -26 147 -48 149 -50 3
-3 -49 -128 -179 -429 -228 -525 -416 -964 -536 -1245 -148 -347 -183 -425
-189 -418 -5 4 -132 310 -220 528 -23 58 -73 179 -110 270 -75 184 -147 360
-265 650 -44 107 -135 330 -202 495 l-123 300 -320 3 -320 2 -46 -112 c-26
-62 -88 -214 -139 -338 -50 -124 -152 -369 -225 -545 -74 -176 -220 -527 -325
-780 -105 -253 -194 -463 -198 -467 -4 -4 -52 99 -107 230 -54 130 -138 332
-186 447 -48 116 -117 282 -154 370 -37 88 -80 192 -95 230 -22 56 -298 718
-383 918 l-20 47 -484 0 c-384 0 -484 -3 -480 -12 68 -172 155 -385 282 -688
87 -206 177 -422 200 -480 24 -58 64 -154 90 -215 76 -180 198 -467 283 -670
44 -104 129 -307 190 -450 60 -143 140 -332 177 -420 88 -209 158 -376 235
-557 l62 -148 400 0 399 0 24 53 c13 28 89 214 170 412 81 198 196 479 256
625 60 146 172 420 248 610 l140 345 17 -40 c9 -22 47 -119 84 -215 56 -145
297 -747 649 -1620 l66 -165 404 0 403 0 105 250 c58 138 133 318 168 400 34
83 137 328 227 545 91 217 240 573 331 790 552 1322 491 1183 519 1175 13 -4
94 -38 181 -76 86 -38 165 -69 176 -69 10 0 31 10 46 22 24 19 27 26 23 68 -3
25 -55 199 -116 385 -62 187 -137 421 -167 519 -63 207 -80 243 -125 274 -51
34 -93 29 -201 -27z"/>
<path d="M6996 5539 c-16 -43 -17 -53 -5 -60 8 -5 19 -9 24 -9 20 0 172 -94
250 -155 171 -133 246 -287 196 -401 -90 -202 -457 -363 -1141 -498 -223 -44
-362 -69 -948 -166 -430 -72 -840 -156 -1047 -215 -509 -145 -781 -292 -862
-464 -22 -45 -25 -63 -21 -116 7 -78 37 -132 121 -214 68 -66 78 -73 315 -247
310 -226 486 -425 588 -666 l29 -68 754 0 c685 0 752 1 740 16 -28 34 -190
163 -294 236 -200 138 -487 288 -795 418 -169 70 -441 196 -515 238 -135 76
-249 178 -274 245 -30 79 3 166 88 234 80 63 291 164 461 218 268 86 445 122
1440 295 263 46 498 95 702 146 148 37 176 41 113 18 -94 -36 -608 -158 -955
-228 -749 -151 -882 -181 -1140 -266 -368 -120 -540 -233 -540 -356 0 -52 28
-94 103 -155 105 -84 263 -157 752 -344 466 -179 778 -343 1068 -563 67 -51
138 -106 157 -122 l36 -30 928 2 929 3 -114 63 c-619 342 -1274 573 -2474 872
-699 174 -765 197 -765 271 0 106 479 266 1465 489 721 163 1140 290 1443 435
165 80 255 139 323 213 74 81 102 147 102 238 -1 102 -34 170 -126 261 -143
140 -336 248 -632 352 -97 35 -428 131 -449 131 -6 0 -20 -23 -30 -51z"/>
<path d="M2855 4953 c-271 -62 -389 -97 -582 -169 -445 -167 -696 -331 -785
-512 -28 -57 -33 -77 -33 -142 0 -67 4 -82 35 -140 47 -87 171 -211 290 -289
269 -177 823 -400 1444 -582 94 -27 180 -53 191 -56 11 -3 -15 30 -60 78 -192
201 -215 413 -60 564 31 29 42 46 33 49 -7 3 -58 17 -112 31 -362 96 -685 281
-768 438 -17 32 -23 59 -23 117 0 65 4 82 29 128 59 105 216 230 407 321 l96
46 -35 63 c-18 34 -37 61 -40 61 -4 -1 -16 -3 -27 -6z"/>
<path d="M1791 1593 c0 -10 49 -160 107 -333 l107 -315 55 0 55 0 68 210 c38
116 72 218 76 229 5 13 22 -30 60 -145 29 -90 62 -193 74 -229 l23 -65 48 -3
c27 -2 52 0 57 5 5 5 58 154 118 331 82 241 107 324 97 328 -8 3 -35 4 -61 2
l-48 -3 -44 -130 c-24 -71 -59 -179 -78 -240 -18 -60 -36 -103 -38 -95 -27 79
-101 313 -122 383 l-26 88 -52 -3 -51 -3 -76 -232 c-41 -128 -77 -233 -80
-233 -3 0 -13 28 -23 63 -10 34 -43 140 -73 235 l-55 172 -60 0 c-50 0 -59 -3
-58 -17z"/>
<path d="M3062 1558 c-11 -29 -71 -170 -132 -313 -62 -143 -115 -270 -117
-283 -5 -22 -4 -23 56 -20 l61 3 65 160 c36 88 82 202 102 253 19 50 38 92 42
92 3 0 19 -33 35 -73 73 -182 170 -413 179 -424 9 -13 108 -19 119 -7 3 3 -24
76 -61 162 -37 86 -100 235 -141 330 l-73 172 -57 0 -57 0 -21 -52z"/>
<path d="M3496 1602 c-3 -5 53 -97 124 -205 l129 -197 3 -128 3 -127 55 0 55
0 5 135 5 135 79 120 c43 66 100 152 127 192 26 39 45 74 41 77 -3 3 -32 6
-64 6 l-59 0 -90 -140 c-50 -77 -95 -140 -99 -140 -4 0 -43 55 -85 123 -106
165 -98 157 -166 157 -32 0 -60 -4 -63 -8z"/>
<path d="M4292 1278 l3 -333 55 0 55 0 5 227 5 227 91 -142 c50 -78 96 -142
104 -142 7 0 54 64 105 142 75 116 94 138 98 121 4 -12 3 -103 0 -203 -3 -100
-3 -194 1 -208 6 -25 10 -27 60 -27 30 0 56 4 58 10 2 5 2 156 0 335 l-3 325
-58 0 -58 0 -50 -77 c-27 -43 -71 -113 -98 -156 -38 -61 -51 -75 -60 -65 -7 7
-43 63 -80 123 -111 179 -106 175 -176 175 l-59 0 2 -332z"/>
<path d="M5376 1558 c-13 -29 -54 -125 -91 -213 -37 -88 -89 -211 -116 -273
-27 -63 -49 -118 -49 -123 0 -6 26 -9 62 -7 l62 3 39 95 c21 52 66 163 99 245
33 83 63 154 67 158 5 5 24 -31 44 -80 20 -48 55 -133 78 -188 23 -55 54 -129
69 -165 l26 -65 62 -3 c34 -2 62 1 62 6 0 8 -59 148 -214 512 l-62 145 -57 3
-58 3 -23 -53z"/>
<path d="M5980 1275 l0 -336 58 3 57 3 3 101 3 100 44 44 c36 35 47 42 57 32
7 -7 58 -72 113 -145 l100 -132 73 -3 c39 -2 72 0 72 2 0 3 -63 89 -140 192
l-141 185 131 139 c71 75 130 140 130 144 0 3 -31 6 -68 6 l-68 0 -149 -157
-150 -157 -5 155 -5 154 -57 3 -58 3 0 -336z"/>
<path d="M6725 1598 c-3 -7 -4 -157 -3 -333 l3 -320 243 -3 242 -2 0 55 0 55
-182 2 -183 3 0 85 0 85 163 3 162 2 0 50 0 50 -162 2 -163 3 -3 82 -3 83 183
2 183 3 0 50 0 50 -238 3 c-185 2 -239 0 -242 -10z"/>
<path d="M7419 1303 c-1 -169 -2 -319 -3 -333 -1 -24 2 -25 56 -28 l57 -3 3
118 3 118 70 3 71 3 79 -118 80 -118 68 -3 c42 -2 67 1 67 8 0 11 -121 191
-152 226 -18 20 -17 20 26 41 67 33 99 82 104 158 2 35 -1 79 -7 98 -15 44
-77 102 -128 118 -21 6 -118 14 -215 16 l-178 5 -1 -309z m383 158 c27 -30 30
-39 25 -80 -9 -81 -62 -106 -217 -99 l-75 3 -3 94 c-1 52 0 101 3 109 4 11 28
13 121 10 l116 -3 30 -34z"/>
</g>
</svg>
